<svg xmlns="http://www.w3.org/2000/svg" viewBox="0 0 1200 1200"><defs><pattern id="a" width="691.5" height="479.1" patternUnits="userSpaceOnUse"><path fill="none" d="M0 0h691.5v479.1H0z"/><path fill="#fff" d="M601.7 491l-73.5 73.4a17.3 17.3 0 1 1-24.4-24.4l73.4-73.4a17.3 17.3 0 0 1 24.5 24.4zm-4.8-19.6a10.5 10.5 0 0 0-14.9 0l-73.4 73.4a10.5 10.5 0 0 0-1 13.8 13.9 13.9 0 0 1 4-10.7l37-37 11.7 11.7 36.5-36.5a10.5 10.5 0 0 0 0-14.8zM705.2 299.4v-25h25a15.9 15.9 0 0 0 0-31.7h-25v-25a15.9 15.9 0 0 0-31.7 0v25h-25a15.9 15.9 0 1 0 0 31.7h25v25a15.9 15.9 0 0 0 31.7 0zm-28.3-49.9a3.4 3.4 0 0 0 3.4-3.4v-28.3a9 9 0 1 1 18.1 0V246a3.4 3.4 0 0 0 3.4 3.4h28.4a9 9 0 1 1 0 18.2h-28.4a3.4 3.4 0 0 0-3.4 3.4v28.4a9 9 0 1 1-18.1 0V271a3.4 3.4 0 0 0-3.4-3.4h-28.4a9 9 0 1 1 0-18.2zM717.8 484.4a40.3 40.3 0 0 1-57 0c-17.1-17.2-17.2-39.5 0-57a137.8 137.8 0 0 0 25.5-36.8 3.4 3.4 0 0 1 3-2 3.4 3.4 0 0 1 3.2 2 138.8 138.8 0 0 0 25.4 36.8c17.1 17.5 17.1 39.8 0 57zm-4.8-52.2a144.4 144.4 0 0 1-23.7-32.6 144.4 144.4 0 0 1-23.7 32.6c-17.3 17.6-11.4 36 0 47.4a33.5 33.5 0 0 0 47.4 0c11.4-11.4 17.4-29.8 0-47.4zM580.2 342.3c1.3-19.5 1.4-39.6-17.5-58.5a3.4 3.4 0 0 0-4.8 4.8 57 57 0 0 1 8.3 10.4l-10.4 10.4a3.4 3.4 0 1 0 4.8 4.8l9-8.9a49.2 49.2 0 0 1 2.6 8.2L561 324.8a3.4 3.4 0 0 0 4.8 4.8l7.8-7.8a128 128 0 0 1-.2 21l-8.7.5 3-3a3.4 3.4 0 1 0-4.8-4.8l-7.7 7.7a62.7 62.7 0 0 1-11-1.5l8.3-8.2a3.4 3.4 0 0 0-4.8-4.8l-10.8 10.7a48.5 48.5 0 0 1-8.1-4.3l12.6-12.7a3.4 3.4 0 0 0-4.8-4.8L523.2 331a63.2 63.2 0 0 1-4-3.7 3.4 3.4 0 1 0-4.8 4.8c18.8 19 39 18.9 58.5 17.5-1.4 19.5-1.6 39.4 16.9 58a3.4 3.4 0 0 0 4.8-4.9 53.8 53.8 0 0 1-8.1-10.2l.1-.1 15.6-15.6a3.4 3.4 0 0 0-4.8-4.8l-14.2 14.2a50 50 0 0 1-2.6-8.3h.1l9-9a3.4 3.4 0 1 0-4.7-4.9l-5.5 5.5a136.4 136.4 0 0 1 .3-20.3l7.9-.5-3.4 3.4a3.4 3.4 0 0 0 4.8 4.8l8.2-8.2a65.4 65.4 0 0 1 11 1.3l-10 10.1a3.4 3.4 0 1 0 4.8 4.8l12.3-12.2a3.1 3.1 0 0 0 .3-.4 47 47 0 0 1 8.3 4.2L609.4 371a3.4 3.4 0 1 0 4.8 4.8l15.4-15.4 3.8 3.5a3.4 3.4 0 0 0 4.8-4.8c-18.6-18.5-38.5-18.2-58-16.9zM359.4 539v-25h25a15.9 15.9 0 1 0 0-31.7h-25v-25a15.9 15.9 0 0 0-31.7 0v25h-25a15.9 15.9 0 0 0 0 31.7h25v25a15.9 15.9 0 0 0 31.7 0zm-28.3-49.9a3.4 3.4 0 0 0 3.4-3.4v-28.4a9 9 0 0 1 18.1 0v28.4a3.4 3.4 0 0 0 3.4 3.4h28.4a9 9 0 0 1 0 18.1h-28.3a3.4 3.4 0 0 0-3.5 3.4V539a9 9 0 0 1-18 0v-28.4a3.4 3.4 0 0 0-3.5-3.4h-28.4a9 9 0 0 1 0-18.1zM185.2 497.2V439a32.5 32.5 0 0 0-55.5-23 32.2 32.2 0 0 0-9.4 19.7 32.5 32.5 0 0 0 3.3 64.9h58.1a3.4 3.4 0 0 0 3.5-3.4zm-61.6-54.8a3.4 3.4 0 0 0 3.4-3.4 25.7 25.7 0 0 1 51.4 0v54.8h-54.8a25.7 25.7 0 0 1 0-51.4z"/><path fill="#fff" d="M171.7 441.4a3.4 3.4 0 0 1-5.8-2.4 13.2 13.2 0 0 0-22.6-9.4 3.4 3.4 0 1 1-4.8-4.8 20 20 0 0 1 34.2 14.2 3.4 3.4 0 0 1-1 2.4zM13.7 299.4v-25h25a15.9 15.9 0 0 0 0-31.7h-25v-25A15.9 15.9 0 0 0-2.2 202 15.9 15.9 0 0 0-18 217.7v25h-25a15.9 15.9 0 0 0-15.9 15.9A15.9 15.9 0 0 0-43 274.5h25v25a15.9 15.9 0 0 0 15.8 15.8 15.9 15.9 0 0 0 15.9-15.9zm-28.3-49.9a3.4 3.4 0 0 0 3.4-3.4v-28.3a9 9 0 0 1 9-9.1 9 9 0 0 1 9.1 9v28.4a3.4 3.4 0 0 0 3.4 3.4h28.4a9 9 0 1 1 0 18.2H10.3a3.4 3.4 0 0 0-3.4 3.4v28.4a9 9 0 0 1-9 9 9 9 0 0 1-9.1-9V271a3.4 3.4 0 0 0-3.4-3.4H-43a9 9 0 0 1-9-9.1 9 9 0 0 1 9-9zM26.3 484.4a40 40 0 0 1-28.5 11.8 40 40 0 0 1-28.5-11.8c-17.2-17.2-17.2-39.5 0-57a137.8 137.8 0 0 0 25.4-36.8 3.4 3.4 0 0 1 3.1-2 3.4 3.4 0 0 1 3.2 2 138.8 138.8 0 0 0 25.4 36.8c17.1 17.5 17.1 39.8 0 57zm-4.8-52.2a144.4 144.4 0 0 1-23.7-32.6 144.4 144.4 0 0 1-23.7 32.6c-17.3 17.6-11.4 36 0 47.4a33.3 33.3 0 0 0 23.7 9.8 33.3 33.3 0 0 0 23.8-9.8c11.3-11.4 17.3-29.8 0-47.4z"/><path fill="#fff" d="M18.3 435.4a3.4 3.4 0 1 0-4.9 4.7c13.7 13.9 6 25.7.1 31.5a3.4 3.4 0 0 0 4.8 4.8c4.8-4.8 18.9-21.8 0-41zM136.7 348.7c-1.8 27.7-22 48.5-46.7 48.5s-44.9-20.8-46.8-48.5c-.9-13.3 1.5-23 7.2-29.1a22.8 22.8 0 0 1 17.4-6.9c8.2 0 16.4 3 22.2 5.6 5.8-2.7 14-5.6 22.2-5.6 7.3 0 13.1 2.3 17.4 6.9 5.7 6 8 15.8 7.1 29.1zm-12-24.5c-3-3.1-7.2-4.7-12.5-4.7-6 0-13.3 2-20.7 5.7a3.4 3.4 0 0 1-3 0 49.2 49.2 0 0 0-20.7-5.7c-5.3 0-9.5 1.6-12.4 4.7-4.3 4.6-6.1 12.7-5.3 24 1.6 24.4 18.4 42.2 40 42.2s38.2-17.8 40-42.2c.6-11.3-1.2-19.4-5.5-24zM87.6 308.6a19.6 19.6 0 0 1 23.2-23.2 3.4 3.4 0 0 1 2.6 2.6 19.5 19.5 0 0 1-19.1 23.6 20 20 0 0 1-4-.4 3.4 3.4 0 0 1-2.7-2.6zm6.4-3.8a12.7 12.7 0 0 0 13-13 12.7 12.7 0 0 0-13 13zM601.7 11.8l-73.5 73.4a17.3 17.3 0 1 1-24.4-24.4l73.4-73.4a17.3 17.3 0 0 1 24.5 0 17.3 17.3 0 0 1 0 24.4zm-4.8-19.6a10.5 10.5 0 0 0-14.9 0l-73.4 73.4a10.5 10.5 0 0 0-1 13.8 13.9 13.9 0 0 1 4-10.7l37-37 11.7 11.8L597 7a10.5 10.5 0 0 0 0-14.8zM660.6 134h-23.5a3.4 3.4 0 0 0-3.1 2l-7.3 15.6-6.1-36.3a3.4 3.4 0 0 0-6.6-.4l-13 45-12.5-56.2a3.4 3.4 0 0 0-6.5-.3L571.7 134h-12a47.2 47.2 0 0 1 93.2-6.8h7a54 54 0 0 0-107.1 9.8v3.8h21.4a3.4 3.4 0 0 0 3.2-2.4l7.2-21.3 12.6 57.2a3.4 3.4 0 0 0 3.2 2.7h.1a3.4 3.4 0 0 0 3.3-2.5l12.6-43.5 5.4 32.4a3.4 3.4 0 0 0 6.5.8l11-23.4h14.5a47.2 47.2 0 0 1-93 6.8h-7a54 54 0 0 0 107-10.6l-.2-3zM717.8 5.3A40 40 0 0 1 689.3 17a40 40 0 0 1-28.5-11.8c-17.2-17.2-17.2-39.6 0-57a137.6 137.6 0 0 0 25.4-36.8 3.4 3.4 0 0 1 3.1-2 3.4 3.4 0 0 1 3.2 2 138.6 138.6 0 0 0 25.4 36.8c17.1 17.4 17.1 39.8 0 57zM713-47a144.4 144.4 0 0 1-23.7-32.6A144.4 144.4 0 0 1 665.6-47c-17.3 17.6-11.4 36 0 47.4a33.3 33.3 0 0 0 23.7 9.8A33.3 33.3 0 0 0 713 .6c11.4-11.4 17.4-29.8 0-47.5zM530.9 257.6v-58.2a32.5 32.5 0 0 0-55.5-23 32.2 32.2 0 0 0-9.3 19.7 32.5 32.5 0 0 0 3.2 64.9h58.2a3.4 3.4 0 0 0 3.4-3.4zm-61.6-54.8a3.4 3.4 0 0 0 3.4-3.4 25.7 25.7 0 1 1 51.4 0v54.8h-54.8a25.7 25.7 0 0 1 0-51.4z"/><path fill="#fff" d="M517.4 201.8a3.4 3.4 0 0 1-5.8-2.4 13.2 13.2 0 0 0-22.5-9.3 3.4 3.4 0 1 1-4.8-4.8 20 20 0 0 1 34.1 14.1 3.4 3.4 0 0 1-1 2.4zM256 251.4l-73.5 73.4a17.3 17.3 0 1 1-24.4-24.4l73.4-73.5a17.3 17.3 0 0 1 24.4 24.5zm-4.9-19.7a10.5 10.5 0 0 0-14.8 0l-73.4 73.5a10.5 10.5 0 0 0-1 13.7 13.9 13.9 0 0 1 4-10.6l37-37 11.7 11.8 36.5-36.5a10.5 10.5 0 0 0 0-14.9zM359.4 59.9v-25h25a15.9 15.9 0 1 0 0-31.7h-25v-25a15.9 15.9 0 0 0-15.8-16 15.9 15.9 0 0 0-15.9 16v25h-25a15.9 15.9 0 1 0 0 31.7h25v25a15.9 15.9 0 0 0 31.7 0zM331.1 10a3.4 3.4 0 0 0 3.4-3.4v-28.4a9 9 0 0 1 9-9 9 9 0 0 1 9.1 9V6.6A3.4 3.4 0 0 0 356 10h28.4a9 9 0 1 1 0 18h-28.3a3.4 3.4 0 0 0-3.5 3.5v28.4a9 9 0 0 1-18 0V31.5A3.4 3.4 0 0 0 331 28h-28.4a9 9 0 1 1 0-18.1zM453.2 314.2a3.4 3.4 0 0 1-2.4 1 3.4 3.4 0 0 1-2.4-1l-7.7-7.7-5.7 5.8 12.5 12.4a3.4 3.4 0 0 1 0 4.8l-49.6 49.6a3.4 3.4 0 0 1-4.8 0l-4.3-4.2-10.6 10.6a3.4 3.4 0 0 1-2.4 1 3.4 3.4 0 0 1-2.4-1l-5.8-5.8-15.4 15.3a3.4 3.4 0 0 1-2.4 1 3.4 3.4 0 0 1-2.4-5.8l15.4-15.4-5.8-5.8a3.4 3.4 0 0 1 0-4.8l10.6-10.6-4.3-4.3a3.4 3.4 0 0 1 0-4.8l24.8-24.8L413 295a3.4 3.4 0 0 1 4.8 0l12.5 12.5 5.7-5.7-7.7-7.7a3.4 3.4 0 0 1 4.8-4.8l20.2 20.2a3.4 3.4 0 0 1 0 4.7zM384 370.1l-11.6-11.7-8.2 8.2 11.6 11.6zm56.3-43l-25-25-8.7 8.8 12.5 12.5a3.4 3.4 0 1 1-4.8 4.8l-12.5-12.5-6.5 6.5 12.5 12.4a3.4 3.4 0 0 1-2.4 5.9 3.4 3.4 0 0 1-2.4-1L390.5 327l-6.5 6.5 12.5 12.4a3.4 3.4 0 0 1 0 4.8 3.4 3.4 0 0 1-2.4 1 3.4 3.4 0 0 1-2.4-1l-12.5-12.4-8.7 8.7 25 25zM514.4 407.4a13.2 13.2 0 0 1 2 16l.9.8a27.9 27.9 0 0 1-39.4 39.4l-15-15a35 35 0 0 1-46.6-2.7L406 435.6l-3.7 3.7a3.4 3.4 0 0 1-4.8-4.8l6-6.1a3.4 3.4 0 0 1 4.9 0l12.7 12.7a28.2 28.2 0 1 0 39.9-40l-12.7-12.6a3.4 3.4 0 0 1 0-4.9l6-6a3.4 3.4 0 0 1 4.9 4.8l-3.7 3.7 10.3 10.2a35 35 0 0 1 2 47.5l14.8 15a21 21 0 1 0 29.9-29.8l-.8-.8a13.2 13.2 0 1 1 2.7-20.7zm-4.8 4.9a6.4 6.4 0 1 0 0 9 6.4 6.4 0 0 0 0-9zM314.9 373.6h-23.6a3.4 3.4 0 0 0-3 2L281 391l-6.1-36.3a3.4 3.4 0 0 0-6.6-.4l-13 45-12.5-56.1a3.4 3.4 0 0 0-6.5-.4L226 373.6h-12a47.2 47.2 0 0 1 93.1-6.8h7a54 54 0 0 0-107.1 9.8l.1 3.8h21.3a3.4 3.4 0 0 0 3.2-2.4l7.2-21.3 12.6 57.2a3.4 3.4 0 0 0 3.3 2.7 3.4 3.4 0 0 0 3.3-2.5l12.6-43.5L276 403a3.4 3.4 0 0 0 6.4.9l11-23.5H308a47.2 47.2 0 0 1-93 6.8h-7a54 54 0 0 0 107-10.6l-.1-3zM372 244.8a40.3 40.3 0 0 1-57 0c-17.1-17.1-17.1-39.5 0-57a137.8 137.8 0 0 0 25.5-36.8 3.4 3.4 0 0 1 3-2 3.4 3.4 0 0 1 3.2 2 138.6 138.6 0 0 0 25.4 36.8c17.2 17.5 17.2 39.9 0 57zm-4.7-52.2a144.4 144.4 0 0 1-23.7-32.6 144.4 144.4 0 0 1-23.7 32.6c-17.4 17.6-11.4 36 0 47.4a33.5 33.5 0 0 0 47.4 0c11.4-11.3 17.3-29.8 0-47.4z"/><path fill="#fff" d="M364 195.8a3.4 3.4 0 1 0-4.8 4.8c13.6 13.8 5.8 25.6 0 31.4a3.4 3.4 0 1 0 4.8 4.8c4.9-4.7 19-21.8 0-41zM234.5 102.8c1.3-19.6 1.4-39.7-17.5-58.6a3.4 3.4 0 0 0-4.8 4.9 57 57 0 0 1 8.3 10.3L210 70a3.4 3.4 0 0 0 4.8 4.8l9-9a49.2 49.2 0 0 1 2.6 8.2l-11.2 11.3A3.4 3.4 0 1 0 220 90l7.8-7.8a128 128 0 0 1-.2 21c-3 .3-5.8.4-8.7.5l3-3a3.4 3.4 0 0 0-4.8-4.8l-7.7 7.8a62.7 62.7 0 0 1-11-1.6l8.3-8.2a3.4 3.4 0 0 0-4.8-4.8L191 99.8a48.5 48.5 0 0 1-8.1-4.3L195.7 83a3.4 3.4 0 0 0-4.8-4.8l-13.5 13.4a63.2 63.2 0 0 1-4-3.7 3.4 3.4 0 0 0-4.8 4.8c18.9 18.9 39 18.8 58.5 17.5-1.3 19.5-1.6 39.4 16.9 57.9a3.4 3.4 0 0 0 4.8-4.8 53.8 53.8 0 0 1-8-10.2v-.1l15.6-15.6a3.4 3.4 0 0 0-4.8-4.8l-14.1 14.2a50 50 0 0 1-2.6-8.3v-.1l9-9a3.4 3.4 0 1 0-4.7-4.8l-5.5 5.5a136.4 136.4 0 0 1 .3-20.4l7.9-.4-3.4 3.3a3.4 3.4 0 0 0 4.8 4.8l8.2-8.2a64.4 64.4 0 0 1 11 1.4l-10 10a3.4 3.4 0 0 0 4.8 4.9l12.3-12.3a3.1 3.1 0 0 0 .3-.4 47 47 0 0 1 8.3 4.2l-14.6 14.7a3.4 3.4 0 0 0 4.8 4.8l15.4-15.4 3.8 3.5a3.4 3.4 0 1 0 4.8-4.8c-18.5-18.5-38.5-18.3-58-17zM482.5 109.1c-1.9 27.7-22 48.6-46.7 48.6s-45-21-46.8-48.6c-1-13.2 1.5-23 7.2-29.1a22.8 22.8 0 0 1 17.3-6.9c8.2 0 16.4 3 22.2 5.7 5.9-2.7 14-5.7 22.2-5.7 7.3 0 13.2 2.4 17.4 6.9 5.7 6 8.1 15.9 7.2 29.1zm-12.1-24.5c-3-3-7.1-4.7-12.5-4.7-6 0-13.3 2-20.6 5.7a3.4 3.4 0 0 1-3 0 49.2 49.2 0 0 0-20.7-5.7c-5.4 0-9.6 1.6-12.5 4.7-4.3 4.7-6 12.8-5.3 24 1.7 24.5 18.5 42.2 40 42.2s38.3-17.7 40-42.2c.7-11.3-1.1-19.3-5.4-24zM433.3 69a19.5 19.5 0 0 1 19.1-23.6 20 20 0 0 1 4.1.4 3.4 3.4 0 0 1 2.6 2.6A19.5 19.5 0 0 1 440 72a20 20 0 0 1-4-.4 3.4 3.4 0 0 1-2.7-2.6zm6.4-3.8a12.7 12.7 0 0 0 13-13 12.7 12.7 0 0 0-13 13zM185.2 18v-58.1a32.5 32.5 0 0 0-32.5-32.5 32.3 32.3 0 0 0-23 9.5 32.2 32.2 0 0 0-9.4 19.7 32.2 32.2 0 0 0-19.7 9.4A32.3 32.3 0 0 0 91-11a32.5 32.5 0 0 0 32.5 32.5h58.1a3.4 3.4 0 0 0 3.5-3.4zm-61.6-54.8a3.4 3.4 0 0 0 3.4-3.4 25.5 25.5 0 0 1 7.5-18.1 25.6 25.6 0 0 1 18.2-7.5 25.7 25.7 0 0 1 25.7 25.6v54.8h-54.8A25.7 25.7 0 0 1 97.9-11a25.5 25.5 0 0 1 7.5-18.1 25.5 25.5 0 0 1 18.2-7.6zM107.5 74.7a3.4 3.4 0 0 1-2.4 1 3.4 3.4 0 0 1-2.5-1L95 67l-5.7 5.7 12.5 12.5a3.4 3.4 0 0 1 0 4.8l-49.6 49.6a3.4 3.4 0 0 1-4.8 0l-4.3-4.3L32.5 146a3.4 3.4 0 0 1-2.4 1 3.4 3.4 0 0 1-2.5-1L22 140 6.5 155.5a3.4 3.4 0 0 1-2.4 1 3.4 3.4 0 0 1-2.4-5.8L17 135.3l-5.8-5.8a3.4 3.4 0 0 1-1-2.4 3.4 3.4 0 0 1 1-2.4L21.8 114l-4.3-4.3a3.4 3.4 0 0 1 0-4.8l24.9-24.8 24.8-24.8a3.4 3.4 0 0 1 4.8 0l12.4 12.5 5.7-5.7-7.6-7.7a3.4 3.4 0 0 1 4.8-4.8l20.1 20.2a3.4 3.4 0 0 1 0 4.8zm-69.3 55.8l-11.6-11.6-8.2 8.2 11.7 11.6zm56.3-43l-25-25-8.7 8.8 12.5 12.5a3.4 3.4 0 0 1 0 4.8 3.4 3.4 0 0 1-2.4 1 3.4 3.4 0 0 1-2.4-1L56 76l-6.4 6.5L62 95.1a3.4 3.4 0 0 1-4.8 4.8L44.8 87.4 38.3 94l12.5 12.5a3.4 3.4 0 0 1 0 4.8 3.4 3.4 0 0 1-2.4 1 3.4 3.4 0 0 1-2.4-1L33.5 98.7l-8.7 8.7 25 25zM168.6 167.9a13.2 13.2 0 0 1 2.1 15.9l.9.8A27.9 27.9 0 1 1 132 224l-15-15a35 35 0 0 1-46.5-2.7L60.3 196l-3.7 3.7a3.4 3.4 0 0 1-4.8-4.8l6-6.1a3.4 3.4 0 0 1 4.9 0l12.7 12.7a28.2 28.2 0 1 0 39.9-40L102.6 149a3.4 3.4 0 0 1 0-4.9l6-6a3.4 3.4 0 0 1 4.9 4.8l-3.7 3.7 10.3 10.2a35 35 0 0 1 1.9 47.6l15 14.9a21 21 0 1 0 29.7-29.8l-.8-.8a13.2 13.2 0 1 1 2.7-20.7zm-4.8 4.8a6.4 6.4 0 1 0 0 9 6.4 6.4 0 0 0 0-9zM26.3 5.3A40 40 0 0 1-2.2 17 40 40 0 0 1-30.7 5.3c-17.2-17.2-17.2-39.6 0-57A137.6 137.6 0 0 0-5.3-88.5a3.4 3.4 0 0 1 3.1-2 3.4 3.4 0 0 1 3.2 2 138.6 138.6 0 0 0 25.4 36.8c17.1 17.4 17.1 39.8 0 57zM21.5-47A144.4 144.4 0 0 1-2.2-79.5 144.4 144.4 0 0 1-25.9-47c-17.3 17.7-11.4 36.1 0 47.5a33.3 33.3 0 0 0 23.7 9.8A33.3 33.3 0 0 0 21.5.5C33-11 39-29.3 21.5-47z"/></pattern></defs><path fill="url(#a)" d="M0 0h1200v1200H0z"/></svg>